<svg width="131" height="131" viewBox="0 0 131 131" fill="none" xmlns="http://www.w3.org/2000/svg">
<path d="M98.5775 125.487H107.638C112.223 125.487 115.99 121.994 116.535 117.518L125.542 27.5646H98.25V5.45837H87.4971V27.5646H60.3691L62.0066 40.3371C71.3404 42.9025 80.0737 47.5421 85.3137 52.673C93.1737 60.4238 98.5775 68.4475 98.5775 81.5475V125.487ZM5.45831 120.029V114.625H87.4971V120.029C87.4971 123.031 85.0408 125.487 81.9841 125.487H10.9712C7.91456 125.487 5.45831 123.031 5.45831 120.029ZM87.4971 81.8205C87.4971 38.1538 5.45831 38.1538 5.45831 81.8205H87.4971ZM5.56748 92.7917H87.4425V103.708H5.56748V92.7917Z" fill="#E9D41B"/>
</svg>
